<svg width="10" height="17" viewBox="0 0 10 17" fill="none" xmlns="http://www.w3.org/2000/svg">
<path d="M2.18732 16.2084C1.98443 16.2095 1.7833 16.1706 1.59547 16.0939C1.40764 16.0172 1.23679 15.9042 1.09274 15.7613C0.948243 15.618 0.833552 15.4474 0.755284 15.2596C0.677016 15.0717 0.636719 14.8702 0.636719 14.6667C0.636719 14.4632 0.677016 14.2617 0.755284 14.0738C0.833552 13.8859 0.948243 13.7154 1.09274 13.5721L6.19566 8.50002L1.29316 3.39711C1.00602 3.10826 0.844853 2.71752 0.844853 2.31023C0.844853 1.90295 1.00602 1.51221 1.29316 1.22336C1.43648 1.07886 1.60699 0.964167 1.79485 0.885898C1.98272 0.80763 2.18422 0.767334 2.38774 0.767334C2.59126 0.767334 2.79276 0.80763 2.98063 0.885898C3.1685 0.964167 3.33901 1.07886 3.48232 1.22336L9.43316 7.39002C9.71563 7.67821 9.87385 8.06565 9.87385 8.46919C9.87385 8.87273 9.71563 9.26018 9.43316 9.54836L3.26649 15.715C3.12811 15.8645 2.9615 15.985 2.77627 16.0697C2.59104 16.1544 2.39087 16.2015 2.18732 16.2084Z" fill="white"/>
</svg>
