<svg width="12" height="10" viewBox="0 0 12 10" fill="none" xmlns="http://www.w3.org/2000/svg">
<path fill-rule="evenodd" clip-rule="evenodd" d="M5.78017 9.79068C5.63952 9.92471 5.44879 10 5.24991 10C5.05103 10 4.8603 9.92471 4.71965 9.79068L0.219592 5.50114C0.0789867 5.36707 -4.20918e-07 5.18526 -4.37491e-07 4.99569C-4.54064e-07 4.80611 0.0789867 4.6243 0.219592 4.49023L4.71965 0.200688C4.86111 0.070459 5.05056 -0.00160157 5.24721 2.72932e-05C5.44386 0.00165615 5.63197 0.0768448 5.77103 0.209398C5.91009 0.34195 5.98897 0.521263 5.99067 0.708713C5.99238 0.896164 5.91679 1.07676 5.78017 1.21159L2.56037 4.28076L11.25 4.28076C11.4489 4.28076 11.6397 4.35608 11.7803 4.49016C11.921 4.62423 12 4.80607 12 4.99568C12 5.18529 11.921 5.36714 11.7803 5.50121C11.6397 5.63529 11.4489 5.71061 11.25 5.71061L2.56037 5.71061L5.78017 8.77978C5.92077 8.91385 5.99976 9.09566 5.99976 9.28523C5.99976 9.4748 5.92077 9.65661 5.78017 9.79068Z" fill="white"/>
</svg>
