<svg width="8" height="17" viewBox="0 0 8 17" fill="none" xmlns="http://www.w3.org/2000/svg">
<path d="M5.07466 4.01261C6.18272 4.01261 7.08097 3.11436 7.08097 2.0063C7.08097 0.898253 6.18272 0 5.07466 0C3.96661 0 3.06836 0.898253 3.06836 2.0063C3.06836 3.11436 3.96661 4.01261 5.07466 4.01261Z" fill="#9EA1B3"/>
<path d="M7.12595 12.194C7.07052 12.1567 7.00821 12.1309 6.94266 12.118C6.87711 12.1051 6.80966 12.1055 6.74425 12.119C6.67884 12.1326 6.61679 12.159 6.56175 12.1969C6.50672 12.2348 6.45979 12.2832 6.42374 12.3395C5.93886 13.0575 5.34487 13.6955 4.66321 14.2304C4.49769 14.3558 3.88075 14.8323 3.61993 14.732C3.43936 14.6768 3.54469 14.3207 3.5798 14.1702L3.84564 13.3827C3.95599 13.0617 5.87702 7.36382 6.08768 6.71177C6.39866 5.75878 6.26324 4.82083 4.84378 5.04654C4.45756 5.08667 0.540253 5.59326 0.470032 5.59827C0.404164 5.60255 0.339785 5.61977 0.280569 5.64893C0.221353 5.67809 0.168461 5.71863 0.124913 5.76823C0.081365 5.81784 0.0480132 5.87553 0.0267621 5.93803C0.00551107 6.00052 -0.00322291 6.06658 0.00105851 6.13245C0.00533992 6.19832 0.0225531 6.2627 0.0517152 6.32191C0.0808773 6.38113 0.121417 6.43402 0.17102 6.47757C0.220623 6.52112 0.278318 6.55447 0.34081 6.57572C0.403303 6.59697 0.469369 6.60571 0.535237 6.60143C0.535237 6.60143 2.03996 6.40581 2.20549 6.39076C2.29027 6.38249 2.37563 6.39892 2.45128 6.43808C2.52693 6.47724 2.58964 6.53745 2.63182 6.61146C2.72271 6.8924 2.71026 7.19657 2.59671 7.46915C2.46631 7.97073 0.404827 13.779 0.339622 14.115C0.269686 14.3963 0.289104 14.6923 0.395175 14.9619C0.501246 15.2316 0.688701 15.4615 0.931482 15.6198C1.38717 15.9235 1.92974 16.0697 2.47634 16.0361C3.00779 16.0296 3.53338 15.9241 4.02621 15.7251C5.27513 15.2235 6.57923 13.8893 7.26639 12.841C7.32556 12.7345 7.34394 12.6101 7.3181 12.4911C7.29225 12.372 7.22395 12.2664 7.12595 12.194Z" fill="#9EA1B3"/>
</svg>
